#!OML:ASF F:\VICON\USERDATA\Patient Classification 1\PLAYGROUND\JustinFriday\JustinFriday.ASF
:FULLY-SPECIFIED
:DEGREES
1164
root 13.8926 28.5907 51.8468 -379.67 -185.509 3.52746
lowerback 60.9223 0.0923531 -5.87936
upperback 3.43783 1.20371 3.09854
thorax -18.2439 2.51274 5.04032
lowerneck -2.79597 0.289347 -15.4542
upperneck 3.58248 0.700902 9.4405
head 1.42372 0.340152 5.38871
rclavicle -3.35449e-014 3.88624e-014
rhumerus 98.4538 4.6999 -76.4136
rradius 48.9527
rwrist 209.593
rhand -23.03 32.5438
rfingers 7.12502
rthumb 3.41412 2.59139
lclavicle -3.35449e-014 3.88624e-014
lhumerus 83.835 22.5338 40.6833
lradius 25.4966
lwrist -15.7363
lhand -7.29445 -3.10303
lfingers 7.12502
lthumb 18.5876 26.0289
rfemur -35.8817 0.350919 23.9705
rtibia 79.5423
rfoot -13.3762 -8.36114
rtoes 9.45201
lfemur -31.0253 14.9895 -20.8325
ltibia 54.768
lfoot -27.7718 4.85706
ltoes -8.06747
1165
root 13.9235 28.6673 51.8854 -380.123 -185.562 3.12064
lowerback 61.4942 0.415944 -6.51202
upperback 3.52304 1.21013 2.92477
thorax -18.1265 2.59019 5.08668
lowerneck -1.81293 0.209589 -15.0835
upperneck 2.02389 0.484995 9.18771
head 0.832137 0.240424 5.23163
rclavicle -2.77305e-014 8.64713e-015
rhumerus 98.3609 4.65757 -76.7882
rradius 49.356
rwrist 209.56
rhand -22.7769 32.3817
rfingers 7.12502
rthumb 3.65856 2.43337
lclavicle -2.77305e-014 8.64713e-015
lhumerus 84.1463 22.5682 40.8745
lradius 25.5261
lwrist -15.5244
lhand -6.98171 -3.61066
lfingers 7.12502
lthumb 18.8884 25.4923
rfemur -37.3888 0.906862 23.8842
rtibia 82.4474
rfoot -15.1045 -9.42702
rtoes 9.9484
lfemur -29.5781 14.5083 -20.9104
ltibia 53.1015
lfoot -27.2785 4.96943
ltoes -6.96471
1166
root 13.9561 28.7474 51.9242 -380.57 -185.619 2.73969
lowerback 62.1141 0.774949 -7.16246
upperback 3.56043 1.23421 2.78652
thorax -18.0675 2.67456 5.1698
lowerneck -2.32702 0.186699 -15.1509
upperneck 2.09888 0.522318 9.46339
head 0.932283 0.270901 5.33204
rclavicle 3.08116e-015 3.97569e-016
rhumerus 98.243 4.621 -77.1443
rradius 49.7227
rwrist 209.474
rhand -22.6556 32.218
rfingers 7.12502
rthumb 3.77573 2.2717
lclavicle 3.08116e-015 3.97569e-016
lhumerus 84.748 22.5077 41.7481
lradius 25.4936
lwrist -15.5452
lhand -6.80209 -3.98327
lfingers 7.12502
lthumb 19.0612 25.1027
rfemur -38.9112 0.886709 23.819
rtibia 85.1295
rfoot -16.7882 -10.0165
rtoes 9.91226
lfemur -28.1622 14.748 -20.9972
ltibia 51.3295
lfoot -25.9091 5.49292
ltoes -10.3339
1167
root 13.9921 28.8461 51.9724 -380.962 -185.731 2.52018
lowerback 62.6472 1.07835 -7.66948
upperback 3.61152 1.28227 2.6425
thorax -17.9902 2.75748 5.16999
lowerneck -2.48882 0.212633 -15.2159
upperneck 1.88743 0.582738 9.79417
head 0.887415 0.312418 5.44725
rclavicle -8.15017e-015 4.77083e-015
rhumerus 98.0695 4.66091 -77.7404
rradius 50.1527
rwrist 209.532
rhand -22.832 32.1384
rfingers 7.12502
rthumb 3.6053 2.18914
lclavicle -8.15017e-015 4.77083e-015
lhumerus 85.3622 22.4148 42.562
lradius 25.5515
lwrist -15.3696
lhand -6.69158 -4.05775
lfingers 7.12502
lthumb 19.1674 25.0177
rfemur -40.3157 1.64261 24.0267
rtibia 87.4621
rfoot -18.4362 -10.9582
rtoes 9.9964
lfemur -26.8079 16.2946 -20.9228
ltibia 49.376
lfoot -25.2696 4.11841
ltoes -11.2484
1168
root 14.0303 28.9174 52.0114 -381.399 -185.79 2.17535
lowerback 63.1831 1.39219 -8.23333
upperback 3.64198 1.28417 2.45498
thorax -17.9226 2.82672 5.16385
lowerneck -2.33725 0.312716 -15.1042
upperneck 1.33847 0.709882 9.95342
head 0.684843 0.385514 5.47718
rclavicle 2.16675e-014 -1.39149e-015
rhumerus 97.8108 4.80388 -78.5487
rradius 50.646
rwrist 209.789
rhand -23.1533 31.9725
rfingers 7.12502
rthumb 3.29509 2.01821
lclavicle 2.16675e-014 -1.39149e-015
lhumerus 85.7672 22.2758 43.0551
lradius 25.8055
lwrist -14.8367
lhand -6.56767 -3.80438
lfingers 7.12502
lthumb 19.2866 25.2592
rfemur -41.85 1.8566 24.0691
rtibia 89.7191
rfoot -19.8661 -11.454
rtoes 9.92286
lfemur -25.4127 15.992 -20.9469
ltibia 47.5703
lfoot -24.3922 4.27237
ltoes -11.3256
1169
root 14.0658 28.995 52.0512 -381.833 -185.849 1.8453
lowerback 63.6946 1.70005 -8.77968
upperback 3.67283 1.28727 2.27184
thorax -17.8496 2.89553 5.15207
lowerneck -4.24497 0.524054 -15.4551
upperneck 2.72115 1.22753 10.3273
head 1.33291 0.667196 5.68106
rclavicle -1.19271e-014 0
rhumerus 97.5998 4.88589 -79.1869
rradius 51.0185
rwrist 210.037
rhand -23.1687 31.7168
rfingers 7.12502
rthumb 3.28016 1.76224
lclavicle -1.19271e-014 0
lhumerus 86.0106 22.1398 43.2741
lradius 26.1196
lwrist -14.0306
lhand -6.65017 -3.32726
lfingers 7.12502
lthumb 19.2072 25.7443
rfemur -43.2481 2.1641 24.138
rtibia 91.6164
rfoot -20.9329 -12.0385
rtoes 9.6027
lfemur -24.0427 15.9935 -21.004
ltibia 45.7027
lfoot -23.316 4.64471
ltoes -12.6393
1170
root 14.1026 29.0652 52.0887 -382.245 -185.93 1.58497
lowerback 64.1686 1.99743 -9.29301
upperback 3.7185 1.30213 2.09194
thorax -17.7556 2.96706 5.12195
lowerneck -3.44241 0.464802 -15.2061
upperneck 2.08673 1.03709 10.6515
head 1.03933 0.573179 5.72901
rclavicle 2.68359e-014 -1.51076e-014
rhumerus 97.4653 4.91617 -79.6696
rradius 51.2563
rwrist 210.171
rhand -22.935 31.675
rfingers 7.12502
rthumb 3.50584 1.72405
lclavicle 2.68359e-014 -1.51076e-014
lhumerus 86.1896 22.0244 43.3537
lradius 26.3953
lwrist -13.4471
lhand -7.0681 -2.72674
lfingers 7.12502
lthumb 18.8053 26.3842
rfemur -44.6178 3.00258 24.3318
rtibia 93.2702
rfoot -21.7607 -12.8935
rtoes 9.41757
lfemur -22.7602 17.0534 -20.949
ltibia 44.1273
lfoot -22.9593 3.28459
ltoes -11.6237
